<?xml version="1.0" encoding="utf-8"?>
<!-- Generator: Adobe Illustrator 21.0.0, SVG Export Plug-In . SVG Version: 6.00 Build 0)  -->
<svg version="1.1" id="Layer_1" xmlns="http://www.w3.org/2000/svg" xmlns:xlink="http://www.w3.org/1999/xlink" x="0px" y="0px"
	 viewBox="0 0 24 24" style="enable-background:new 0 0 24 24;" xml:space="preserve">
<style type="text/css">
	.st0{fill:#2A579A;}
</style>
<g>
	<path class="st0" d="M10.4,3.7h7.3c0.2,0,0.4-0.2,0.4-0.4c0-0.2-0.2-0.4-0.4-0.4h-7.3c-0.2,0-0.4,0.2-0.4,0.4
		C10.1,3.5,10.2,3.7,10.4,3.7z"/>
	<path class="st0" d="M10.4,6h7.3c0.2,0,0.4-0.2,0.4-0.4s-0.2-0.4-0.4-0.4h-7.3c-0.2,0-0.4,0.2-0.4,0.4S10.2,6,10.4,6z"/>
	<path class="st0" d="M10.4,8.4h7.3c0.2,0,0.4-0.2,0.4-0.4c0-0.2-0.2-0.4-0.4-0.4h-7.3c-0.2,0-0.4,0.2-0.4,0.4
		C10.1,8.2,10.2,8.4,10.4,8.4z"/>
	<path class="st0" d="M10.4,10.8h2.3c0.2,0,0.4-0.2,0.4-0.4c0-0.2-0.2-0.4-0.4-0.4h-2.3c-0.2,0-0.4,0.2-0.4,0.4
		C10.1,10.6,10.2,10.8,10.4,10.8z"/>
	<path class="st0" d="M7.6,6C8,6,8.3,6.3,8.3,6.7c0,0.4-0.3,0.7-0.7,0.7c-0.4,0-0.7-0.3-0.7-0.7c0-0.2-0.2-0.4-0.4-0.4
		S6.2,6.5,6.2,6.7c0,0.7,0.5,1.2,1.1,1.4l0,0.3c0,0.2,0.2,0.4,0.4,0.4c0,0,0,0,0,0C7.8,8.8,8,8.6,8,8.4l0-0.3C8.6,8,9.1,7.4,9.1,6.7
		c0-0.8-0.6-1.4-1.4-1.4C7.2,5.3,6.9,5,6.9,4.6c0-0.4,0.3-0.7,0.7-0.7c0.4,0,0.7,0.3,0.7,0.7C8.3,4.8,8.5,5,8.7,5s0.4-0.2,0.4-0.4
		c0-0.7-0.5-1.2-1.1-1.4l0-0.3c0-0.2-0.2-0.4-0.4-0.4c0,0,0,0,0,0c-0.2,0-0.4,0.2-0.4,0.4l0,0.3C6.7,3.4,6.2,3.9,6.2,4.6
		C6.2,5.4,6.8,6,7.6,6z"/>
	<path class="st0" d="M21.7,15.5h-2.5c-0.2,0-0.4,0.2-0.4,0.4V18c0,0.2,0.2,0.4,0.4,0.4h2.5c0.2,0,0.4-0.2,0.4-0.4v-2.1
		C22.1,15.6,21.9,15.5,21.7,15.5z M21.4,17.6h-1.7v-1.4h1.7V17.6z"/>
	<path class="st0" d="M22.2,10h-2.5V1.8c0-0.7-0.6-1.2-1.2-1.2c-10.1,0-15.5,0-15.6,0c-1.3,0-2.4,1.1-2.4,2.4v7.5
		c0,0.1,0,0.2,0.1,0.3c0.1,0.1,0.2,0.1,0.3,0.1c0,0,0,0,0,0l3.7-0.1v9.6c0,0.7,0.6,1.2,1.2,1.2h7.8v0.7c0,0.7,0.6,1.3,1.3,1.3h7.4
		c0.7,0,1.3-0.6,1.3-1.3v-11C23.5,10.5,22.9,10,22.2,10z M4.5,9.9L1.2,10V2.9C1.2,2,2,1.2,2.9,1.2l0,0c0.9,0,1.7,0.7,1.7,1.7V9.9z
		 M5.8,20.8c-0.3,0-0.5-0.2-0.5-0.5V2.9c0-1-0.6-1.6-0.7-1.7c19,0,12.5,0,13.9,0c0.3,0,0.5,0.2,0.5,0.5V10h-4.2
		c-0.7,0-1.3,0.6-1.3,1.3V18h-0.5v-3.1c0-0.2-0.2-0.4-0.4-0.4h-1.9c-0.2,0-0.4,0.2-0.4,0.4V18H9.7v-4.5c0-0.2-0.2-0.4-0.4-0.4H7.5
		c-0.2,0-0.4,0.2-0.4,0.4V18H6.6c-0.2,0-0.4,0.2-0.4,0.4c0,0.2,0.2,0.4,0.4,0.4h7v2.1L5.8,20.8L5.8,20.8z M11.1,18v-2.7h1.2V18H11.1
		z M7.8,18v-4.2H9V18H7.8z M22.8,22.2c0,0.3-0.2,0.5-0.5,0.5h-7.4c-0.3,0-0.5-0.2-0.5-0.5v-11c0-0.3,0.2-0.5,0.5-0.5h7.4
		c0.3,0,0.5,0.2,0.5,0.5V22.2z"/>
	<path class="st0" d="M15.3,14.8h6.4c0.2,0,0.4-0.2,0.4-0.4v-2.6c0-0.2-0.2-0.4-0.4-0.4h-6.4c-0.2,0-0.4,0.2-0.4,0.4v2.6
		C15,14.6,15.1,14.8,15.3,14.8z M15.7,12.2h5.7v1.9h-5.7V12.2z"/>
	<path class="st0" d="M17.8,19.2h-2.5c-0.2,0-0.4,0.2-0.4,0.4v1.6v0.5c0,0.2,0.2,0.4,0.4,0.4h2.5c0.2,0,0.4-0.2,0.4-0.4v-0.5v-1.6
		C18.2,19.3,18,19.2,17.8,19.2z M17.4,21.3h-1.7v-0.1v-1.3h1.7v1.3V21.3z"/>
	<path class="st0" d="M17.8,15.5h-2.5c-0.2,0-0.4,0.2-0.4,0.4V18c0,0.2,0.2,0.4,0.4,0.4h2.5c0.2,0,0.4-0.2,0.4-0.4v-2.1
		C18.2,15.6,18,15.5,17.8,15.5z M17.4,17.6h-1.7v-1.4h1.7V17.6z"/>
	<path class="st0" d="M21.7,19.2h-2.5c-0.2,0-0.4,0.2-0.4,0.4v2.1c0,0.2,0.2,0.4,0.4,0.4h2.5c0.2,0,0.4-0.2,0.4-0.4v-2.1
		C22.1,19.3,21.9,19.2,21.7,19.2z M21.4,21.3h-1.7v-1.4h1.7V21.3z"/>
</g>
</svg>
